<svg width="24" height="24" viewBox="0 0 24 24" fill="none" xmlns="http://www.w3.org/2000/svg">
<path d="M6.07617 15.917H17.0361C19.8926 15.917 22.0986 13.7549 22.0986 10.9775C22.0986 8.15625 19.8135 6.03809 16.7988 6.06445C15.665 3.78809 13.5996 2.50488 11.0947 2.50488C7.80762 2.50488 5.04785 5.03613 4.74023 8.34082C3.02637 8.8418 1.89258 10.292 1.89258 12.0762C1.89258 14.3438 3.59766 15.917 6.07617 15.917ZM13.3359 20.2676L14.4697 18.3076C14.6455 18.0176 14.5576 17.6748 14.2676 17.5078C13.9775 17.3408 13.6523 17.4375 13.4854 17.7363L12.3428 19.7139C12.1846 19.9863 12.2549 20.3203 12.5537 20.4873C12.835 20.6543 13.1777 20.5488 13.3359 20.2676ZM6.34863 20.2764L7.48242 18.3076C7.64941 18.0264 7.56152 17.6836 7.28027 17.5166C6.99023 17.3496 6.66504 17.4463 6.48926 17.7451L5.34668 19.7139C5.18848 19.9951 5.26758 20.3291 5.55762 20.4961C5.83887 20.6543 6.18164 20.5576 6.34863 20.2764ZM16.0957 22.7373L17.2295 20.7773C17.3965 20.4873 17.3086 20.1445 17.0273 19.9775C16.7373 19.8105 16.4121 19.9072 16.2363 20.2061L15.1025 22.1836C14.9355 22.4561 15.0146 22.79 15.3047 22.957C15.5947 23.124 15.9375 23.0186 16.0957 22.7373ZM9.09961 22.7461L10.2334 20.7861C10.4092 20.4961 10.3213 20.1533 10.0312 19.9863C9.74121 19.8193 9.4248 19.916 9.24902 20.2148L8.10645 22.1924C7.94824 22.4648 8.01855 22.7988 8.31738 22.9658C8.59863 23.1328 8.94141 23.0273 9.09961 22.7461Z" fill="white"/>
</svg>
