<svg width="24" height="24" viewBox="0 0 24 24" fill="none" xmlns="http://www.w3.org/2000/svg">
<path d="M6.07617 15.917H17.0361C19.8926 15.917 22.0986 13.7549 22.0986 10.9775C22.0986 8.15625 19.8135 6.03809 16.7988 6.06445C15.665 3.78809 13.5996 2.50488 11.0947 2.50488C7.80762 2.50488 5.04785 5.03613 4.74023 8.34082C3.02637 8.8418 1.89258 10.292 1.89258 12.0762C1.89258 14.3438 3.59766 15.917 6.07617 15.917ZM6.49805 20.54C6.67383 20.54 6.79688 20.373 6.7793 20.1973L6.7002 19.3623L7.39453 19.8457C7.53516 19.9512 7.74609 19.916 7.83398 19.7666C7.93066 19.6172 7.86914 19.4062 7.68457 19.3271L6.92871 18.9756L7.69336 18.6152C7.86914 18.5273 7.92188 18.334 7.84277 18.1846C7.75488 18.0264 7.53516 18 7.39453 18.1055L6.70898 18.5889L6.78809 17.7539C6.81445 17.5605 6.67383 17.4111 6.49805 17.4111C6.2959 17.4111 6.18164 17.5605 6.19043 17.7539L6.26953 18.5889L5.5752 18.0967C5.43457 18 5.23242 18.0176 5.13574 18.1846C5.04785 18.334 5.10059 18.5273 5.28516 18.6152L6.04102 18.9756L5.28516 19.3271C5.10059 19.4062 5.04785 19.6084 5.12695 19.7666C5.21484 19.9248 5.43457 19.9512 5.5752 19.8457L6.26953 19.3623L6.19922 20.1973C6.18164 20.373 6.2959 20.54 6.49805 20.54ZM16.2363 20.54C16.4121 20.54 16.5352 20.373 16.5176 20.1973L16.4385 19.3623L17.1328 19.8457C17.2734 19.9512 17.4844 19.916 17.5723 19.7666C17.6689 19.6172 17.6074 19.4062 17.4229 19.3271L16.667 18.9756L17.4316 18.6152C17.6074 18.5273 17.6602 18.334 17.5811 18.1846C17.4932 18.0264 17.2734 18 17.1328 18.1055L16.4473 18.5889L16.5264 17.7539C16.5439 17.5605 16.4121 17.4111 16.2363 17.4111C16.0342 17.4111 15.9199 17.5605 15.9287 17.7539L15.999 18.5889L15.3135 18.0967C15.1729 18 14.9707 18.0176 14.874 18.1846C14.7861 18.334 14.8389 18.5273 15.0234 18.6152L15.7793 18.9756L15.0234 19.3271C14.8389 19.4062 14.7773 19.6084 14.8652 19.7666C14.9531 19.9248 15.1729 19.9512 15.3135 19.8457L15.999 19.3623L15.9375 20.1973C15.9199 20.373 16.0342 20.54 16.2363 20.54ZM11.3672 20.54C11.543 20.54 11.666 20.373 11.6484 20.1973L11.5693 19.3623L12.2637 19.8457C12.4043 19.9512 12.6152 19.916 12.7031 19.7666C12.7998 19.6172 12.7383 19.4062 12.5537 19.3271L11.7979 18.9756L12.5625 18.6152C12.7383 18.5273 12.791 18.334 12.7119 18.1846C12.624 18.0264 12.4043 18 12.2637 18.1055L11.5781 18.5889L11.6572 17.7539C11.6748 17.5605 11.543 17.4111 11.3672 17.4111C11.165 17.4111 11.0508 17.5605 11.0596 17.7539L11.1387 18.5889L10.4443 18.0967C10.3037 18 10.1016 18.0176 10.0049 18.1846C9.91699 18.334 9.96973 18.5273 10.1543 18.6152L10.9102 18.9756L10.1543 19.3271C9.96973 19.4062 9.9082 19.6084 9.99609 19.7666C10.084 19.9248 10.3037 19.9512 10.4443 19.8457L11.1387 19.3623L11.0684 20.1973C11.0508 20.373 11.165 20.54 11.3672 20.54ZM9.45996 23.8359C9.63574 23.8359 9.75879 23.6777 9.74121 23.4932L9.66211 22.6582L10.3564 23.1416C10.4971 23.2471 10.708 23.2119 10.7959 23.0625C10.8926 22.9131 10.8311 22.7021 10.6465 22.623L9.89062 22.2715L10.6553 21.9111C10.8311 21.832 10.8838 21.6299 10.8047 21.4805C10.7168 21.3223 10.4971 21.2959 10.3564 21.4014L9.6709 21.8848L9.75 21.0498C9.76758 20.8652 9.63574 20.707 9.45996 20.707C9.25781 20.707 9.14355 20.8652 9.15234 21.0498L9.23145 21.8848L8.53711 21.4014C8.39648 21.2959 8.19434 21.3135 8.09766 21.4805C8.00977 21.6299 8.0625 21.8232 8.24707 21.9111L9.00293 22.2715L8.24707 22.623C8.0625 22.7109 8.00098 22.9131 8.08887 23.0625C8.17676 23.2207 8.39648 23.2471 8.53711 23.1416L9.23145 22.667L9.16113 23.4932C9.14355 23.6777 9.25781 23.8359 9.45996 23.8359ZM4.59082 23.8359C4.7666 23.8359 4.88965 23.6777 4.87207 23.4932L4.80176 22.6582L5.4873 23.1416C5.62793 23.2471 5.83887 23.2119 5.92676 23.0625C6.02344 22.9131 5.96191 22.7021 5.77734 22.623L5.02148 22.2715L5.78613 21.9111C5.96191 21.832 6.01465 21.6299 5.93555 21.4805C5.85645 21.3223 5.62793 21.2959 5.4873 21.4014L4.80176 21.8848L4.88086 21.0498C4.90723 20.8652 4.7666 20.707 4.59082 20.707C4.39746 20.707 4.27441 20.8652 4.2832 21.0498L4.3623 21.8848L3.66797 21.4014C3.52734 21.2959 3.3252 21.3135 3.22852 21.4805C3.14062 21.6299 3.19336 21.8232 3.37793 21.9111L4.13379 22.2715L3.37793 22.623C3.19336 22.7109 3.14062 22.9131 3.21973 23.0625C3.30762 23.2207 3.52734 23.2471 3.66797 23.1416L4.3623 22.667L4.29199 23.4932C4.27441 23.6777 4.39746 23.8359 4.59082 23.8359ZM14.3291 23.8359C14.5049 23.8359 14.6279 23.6777 14.6104 23.4932L14.5312 22.6582L15.2256 23.1416C15.3662 23.2471 15.5771 23.2119 15.665 23.0625C15.7617 22.9131 15.7002 22.7021 15.5156 22.623L14.7598 22.2715L15.5244 21.9111C15.7002 21.832 15.7529 21.6299 15.6738 21.4805C15.5859 21.3223 15.3662 21.2959 15.2256 21.4014L14.54 21.8848L14.6191 21.0498C14.6367 20.8652 14.5049 20.707 14.3291 20.707C14.127 20.707 14.0127 20.8652 14.0215 21.0498L14.0918 21.8848L13.4062 21.4014C13.2656 21.2959 13.0635 21.3135 12.9668 21.4805C12.8789 21.6299 12.9316 21.8232 13.1162 21.9111L13.8721 22.2715L13.1162 22.623C12.9316 22.7109 12.8701 22.9131 12.958 23.0625C13.0459 23.2207 13.2656 23.2471 13.4062 23.1416L14.0918 22.667L14.0303 23.4932C14.0127 23.6777 14.127 23.8359 14.3291 23.8359Z" fill="white"/>
</svg>
