<svg width="24" height="24" viewBox="0 0 24 24" fill="none" xmlns="http://www.w3.org/2000/svg">
<path d="M12.8965 2.68945C12.8965 2.20605 12.4834 1.79297 12 1.79297C11.5166 1.79297 11.1123 2.20605 11.1123 2.68945V4.47363C11.1123 4.95703 11.5166 5.36133 12 5.36133C12.4834 5.36133 12.8965 4.95703 12.8965 4.47363V2.68945ZM16.4121 5.95898C16.0693 6.30176 16.0693 6.87305 16.4209 7.21582C16.7549 7.55859 17.335 7.55859 17.6777 7.20703L18.9434 5.94141C19.2861 5.60742 19.2861 5.01855 18.9434 4.67578C18.6006 4.3418 18.0293 4.3418 17.6865 4.68457L16.4121 5.95898ZM6.32227 7.20703C6.65625 7.55859 7.23633 7.55859 7.5791 7.21582C7.92188 6.88184 7.92188 6.29297 7.58789 5.95898L6.32227 4.68457C5.98828 4.35059 5.4082 4.3418 5.06543 4.67578C4.72266 5.01855 4.72266 5.60742 5.05664 5.93262L6.32227 7.20703ZM12 6.9873C9.46875 6.9873 7.36816 9.0791 7.36816 11.6191C7.36816 14.1592 9.46875 16.251 12 16.251C14.5312 16.251 16.623 14.1592 16.623 11.6191C16.623 9.0791 14.5312 6.9873 12 6.9873ZM20.9209 12.5156C21.4043 12.5156 21.8086 12.1025 21.8086 11.6191C21.8086 11.1357 21.4043 10.7314 20.9209 10.7314H19.1367C18.6533 10.7314 18.249 11.1357 18.249 11.6191C18.249 12.1025 18.6533 12.5156 19.1367 12.5156H20.9209ZM3.08789 10.7314C2.5957 10.7314 2.19141 11.1357 2.19141 11.6191C2.19141 12.1025 2.5957 12.5156 3.08789 12.5156H4.86328C5.34668 12.5156 5.75977 12.1025 5.75977 11.6191C5.75977 11.1357 5.34668 10.7314 4.86328 10.7314H3.08789ZM17.6689 16.0312C17.3262 15.6885 16.7549 15.6973 16.4121 16.04C16.0693 16.374 16.0693 16.9453 16.4209 17.2969L17.6953 18.5625C18.0293 18.9053 18.6094 18.8965 18.9521 18.5537C19.2861 18.2109 19.2861 17.6396 18.9434 17.2969L17.6689 16.0312ZM5.05664 17.2881C4.71387 17.6309 4.70508 18.2109 5.03906 18.5449C5.38184 18.8877 5.9707 18.8965 6.30469 18.5625L7.5791 17.2969C7.92188 16.9541 7.92188 16.374 7.58789 16.04C7.24512 15.6973 6.66504 15.6973 6.32227 16.0312L5.05664 17.2881ZM12.8965 18.7646C12.8965 18.2812 12.4834 17.877 12 17.877C11.5166 17.877 11.1123 18.2812 11.1123 18.7646V20.5488C11.1123 21.0322 11.5166 21.4453 12 21.4453C12.4834 21.4453 12.8965 21.0322 12.8965 20.5488V18.7646Z" fill="white"/>
</svg>
